<?xml version="1.0" standalone="no"?>
<!DOCTYPE svg PUBLIC "-//W3C//DTD SVG 20010904//EN"
 "http://www.w3.org/TR/2001/REC-SVG-20010904/DTD/svg10.dtd">
<svg version="1.0" xmlns="http://www.w3.org/2000/svg"
 width="147.000000pt" height="61.000000pt" viewBox="0 0 147.000000 61.000000"
 preserveAspectRatio="xMidYMid meet">

<g transform="translate(0.000000,61.000000) scale(0.100000,-0.100000)"
fill="#000000" stroke="none">
<path d="M0 305 l0 -305 735 0 735 0 0 305 0 305 -735 0 -735 0 0 -305z m338
115 c13 -16 29 -30 37 -30 9 0 15 -10 15 -26 0 -23 -3 -25 -30 -19 l-30 7 0
-50 c0 -34 -7 -59 -23 -83 -57 -86 -186 -14 -147 82 12 28 61 56 79 44 18 -11
12 -42 -9 -48 -29 -8 -36 -35 -14 -57 14 -13 25 -16 42 -9 21 8 22 14 22 114
0 95 2 105 18 105 10 0 28 -13 40 -30z m254 -65 c-3 -16 -11 -25 -23 -25 -17
0 -19 -8 -19 -75 0 -73 -1 -75 -25 -75 -23 0 -24 3 -27 78 -3 73 -4 77 -25 74
-19 -3 -23 2 -23 22 0 26 1 26 74 26 73 0 73 0 68 -25z m128 -22 l0 -46 23 21
c13 13 36 22 53 22 l29 -1 -27 -24 c-16 -13 -28 -27 -28 -30 0 -4 14 -26 30
-51 l31 -44 -28 0 c-21 0 -33 8 -46 30 -10 17 -22 30 -28 30 -5 0 -9 -13 -9
-30 0 -25 -4 -30 -25 -30 l-25 0 0 100 0 100 25 0 c23 0 25 -4 25 -47z m266
31 c-3 -9 -6 -20 -6 -24 0 -5 -9 -7 -20 -5 -19 4 -20 -2 -20 -76 0 -77 -1 -79
-25 -79 -23 0 -24 3 -27 78 -3 73 -4 77 -25 74 -19 -3 -23 2 -23 22 0 26 1 26
76 26 65 0 75 -2 70 -16z m234 -31 l0 -46 23 21 c13 12 36 22 52 22 l29 0 -28
-29 -28 -29 31 -46 32 -46 -25 0 c-16 0 -32 10 -46 30 -24 34 -40 31 -40 -6 0
-18 -5 -24 -23 -24 -22 0 -22 2 -21 98 1 53 3 98 3 100 1 1 10 2 21 2 17 0 20
-7 20 -47z m-572 20 c-2 -10 -10 -18 -18 -18 -8 0 -16 8 -18 18 -2 12 3 17 18
17 15 0 20 -5 18 -17z m477 -38 c76 -75 -40 -184 -118 -112 -40 36 -43 73 -8
107 38 39 91 41 126 5z m-471 -68 c2 -64 0 -67 -21 -67 -22 0 -23 4 -23 70 0
66 1 70 21 67 19 -3 22 -10 23 -70z"/>
<path d="M1037 294 c-14 -14 -7 -65 9 -71 26 -10 49 11 49 43 0 24 -5 30 -25
32 -14 2 -29 0 -33 -4z"/>
</g>
</svg>
